<svg height="512" viewBox="0 0 52 60" width="512" xmlns="http://www.w3.org/2000/svg"><g id="Page-1" fill="none" fill-rule="evenodd"><g id="004---Contactless" fill="rgb(0,0,0)" fill-rule="nonzero"><path id="Shape" d="m7 60h38c3.8641657-.0044086 6.9955914-3.1358343 7-7v-21c-.0044086-3.8641657-3.1358343-6.9955914-7-7h-38c-3.86416566.0044086-6.99559136 3.1358343-7 7v21c.00440864 3.8641657 3.13583434 6.9955914 7 7zm-5-28c.00330612-2.7600532 2.23994685-4.9966939 5-5h38c2.7600532.0033061 4.9966939 2.2399468 5 5v21c-.0033061 2.7600532-2.2399468 4.9966939-5 5h-38c-2.76005315-.0033061-4.99669388-2.2399468-5-5z"/><path id="Shape" d="m8 40h6c1.6568542 0 3-1.3431458 3-3v-4c0-1.6568542-1.3431458-3-3-3h-6c-1.65685425 0-3 1.3431458-3 3v4c0 1.6568542 1.34314575 3 3 3zm-1-3v-1h2v2h-1c-.55228475 0-1-.4477153-1-1zm7 1h-3v-2h4v1c0 .5522847-.4477153 1-1 1zm1-5v1h-4v-2h3c.5522847 0 1 .4477153 1 1zm-7-1h1v2h-2v-1c0-.5522847.44771525-1 1-1z"/><path id="Shape" d="m8 48h6c.5522847 0 1-.4477153 1-1s-.4477153-1-1-1h-6c-.55228475 0-1 .4477153-1 1s.44771525 1 1 1z"/><path id="Shape" d="m18 48h6c.5522847 0 1-.4477153 1-1s-.4477153-1-1-1h-6c-.5522847 0-1 .4477153-1 1s.4477153 1 1 1z"/><path id="Shape" d="m28 48h6c.5522847 0 1-.4477153 1-1s-.4477153-1-1-1h-6c-.5522847 0-1 .4477153-1 1s.4477153 1 1 1z"/><path id="Shape" d="m44 46h-6c-.5522847 0-1 .4477153-1 1s.4477153 1 1 1h6c.5522847 0 1-.4477153 1-1s-.4477153-1-1-1z"/><path id="Shape" d="m10 52h-2c-.55228475 0-1 .4477153-1 1s.44771525 1 1 1h2c.5522847 0 1-.4477153 1-1s-.4477153-1-1-1z"/><path id="Shape" d="m17 52h-2c-.5522847 0-1 .4477153-1 1s.4477153 1 1 1h2c.5522847 0 1-.4477153 1-1s-.4477153-1-1-1z"/><path id="Shape" d="m37 39c1.1531181-.003719 2.247792-.5079987 3-1.382 1.093225 1.2628661 2.8560646 1.7134762 4.4212104 1.1301323 1.5651459-.5833438 2.6030376-2.0778115 2.6030376-3.7481323s-1.0378917-3.1647885-2.6030376-3.7481323c-1.5651458-.5833439-3.3279854-.1327338-4.4212104 1.1301323-1.2110928-1.3866594-3.2134336-1.7652231-4.8471665-.916408-1.6337329.848815-2.4750835 2.7048345-2.0366995 4.4929591s2.0427901 3.0445323 3.883866 3.0414489zm6-6c1.1045695 0 2 .8954305 2 2s-.8954305 2-2 2-2-.8954305-2-2 .8954305-2 2-2zm-6 0c1.1045695 0 2 .8954305 2 2s-.8954305 2-2 2-2-.8954305-2-2 .8954305-2 2-2z"/><path id="Shape" d="m14.121 10.969c6.6432904-6.62868527 17.3987096-6.62868527 24.042 0 .7532234.7798698 1.8686337 1.0926378 2.917522.8180915 1.0488883-.2745464 1.8680231-1.0936812 2.1425695-2.14256953.2745463-1.04888829-.0382217-2.16429856-.8180915-2.91752197-8.9872026-8.96877108-23.5387974-8.96877108-32.526 0-.56271905.56262374-.87885933 1.32576248-.87885933 2.1215s.31614028 1.5588763.87885933 2.1215c1.18712 1.133186 3.0554144 1.1327455 4.242-.001zm-2.828-2.828c8.2064324-8.18933925 21.4935676-8.18933925 29.7 0 .3903819.39049985.3903819 1.02350015 0 1.414-.395481.37816251-1.018519.37816251-1.414 0-7.4249737-7.40779687-19.4450263-7.40779687-26.87 0-.3952754.3786748-1.0187246.3786748-1.414 0-.3897159-.39038508-.3897159-1.02261492 0-1.413z"/><path id="Shape" d="m34.627 17.5c1.2133697.0001454 2.3073543-.7306299 2.7718425-1.8515744.4644883-1.1209446.2080099-2.4113141-.6498425-3.2694256-5.8612641-5.84945887-15.3517359-5.84945887-21.213 0-1.1711458 1.1714996-1.1711458 3.0705004 0 4.242 1.1869844 1.1341025 3.0560156 1.1341025 4.243 0 3.5172366-3.508708 9.2107634-3.508708 12.728 0 .5609786.564277 1.3243227.8807767 2.12.879zm-16.264-2.289c-.3949387.3785493-1.0180613.3785493-1.413 0-.3903819-.3904999-.3903819-1.0235001 0-1.414 5.0801482-5.06803147 13.3038518-5.06803147 18.384 0 .3897159.3903851.3897159 1.0226149 0 1.413-.395481.3781625-1.018519.3781625-1.414 0-4.2992625-4.2879349-11.2577375-4.2879349-15.557 0z"/><path id="Shape" d="m21.192 18.04c-1.1716721 1.1719482-1.1714482 3.0718279.0005 4.2435 1.1719483 1.1716721 3.0718279 1.1714482 4.2435-.0005.3953495-.3775255 1.0176505-.3775255 1.413 0 .7579389.7579389 1.862659 1.0539478 2.8980229.7765229s1.8440751-1.0861361 2.1215-2.1215-.018584-2.140084-.7765229-2.8980229c-2.7357808-2.7290462-7.1642192-2.7290462-9.9 0zm8.486 2.828c-.3904999.3903819-1.0235001.3903819-1.414 0-.5626237-.562719-1.3257625-.8788593-2.1215-.8788593s-1.5588763.3161403-2.1215.8788593c-.3904653.3907415-1.0237585.3909653-1.4145.0005s-.3909653-1.0237585-.0005-1.4145c1.9545523-1.9488348 5.1174477-1.9488348 7.072 0 .3903819.3904999.3903819 1.0235001 0 1.414z"/></g></g></svg>